<?xml version="1.0" encoding="utf-8"?>
<!-- Generator: Adobe Illustrator 26.0.3, SVG Export Plug-In . SVG Version: 6.00 Build 0)  -->
<svg version="1.1" id="Layer_1" xmlns="http://www.w3.org/2000/svg" xmlns:xlink="http://www.w3.org/1999/xlink" x="0px" y="0px"
	 viewBox="0 0 28 28" style="enable-background:new 0 0 28 28;" xml:space="preserve">
<style type="text/css">
	.st0{fill:#8E8DBE;}
	.st1{fill:#676694;}
	.st2{fill:#FFFFFF;}
	.st3{fill:none;stroke:#676694;stroke-width:0.7457;stroke-linecap:round;stroke-linejoin:round;stroke-miterlimit:10;}
</style>
<circle class="st0" cx="14" cy="14" r="13.78"/>
<g>
	<path class="st1" d="M10.15,22c-0.39,0.32-0.94,0.48-1.66,0.48H7.12v2.37H5.75v-6.6h2.83c0.65,0,1.17,0.17,1.56,0.51
		c0.39,0.34,0.58,0.87,0.58,1.58C10.72,21.13,10.53,21.68,10.15,22z M9.09,19.63c-0.17-0.15-0.42-0.22-0.73-0.22H7.12v1.94h1.24
		c0.31,0,0.56-0.08,0.73-0.24c0.17-0.16,0.26-0.41,0.26-0.75C9.35,20.02,9.27,19.77,9.09,19.63z"/>
	<path class="st1" d="M11.82,24.86v-6.6h1.37v2.52h2.57v-2.52h1.37v6.6h-1.37v-2.95h-2.57v2.95H11.82z"/>
	<path class="st1" d="M23.25,18.26v1.17h-1.97v5.43h-1.39v-5.43H17.9v-1.17H23.25z"/>
</g>
<g>
	<path class="st2" d="M9.54,21.39c-0.39,0.32-0.94,0.48-1.66,0.48H6.51v2.37H5.14v-6.6h2.83c0.65,0,1.17,0.17,1.56,0.51
		c0.39,0.34,0.58,0.87,0.58,1.58C10.12,20.51,9.92,21.07,9.54,21.39z M8.49,19.01c-0.17-0.15-0.42-0.22-0.73-0.22H6.51v1.94h1.24
		c0.31,0,0.56-0.08,0.73-0.24c0.17-0.16,0.26-0.41,0.26-0.75C8.75,19.4,8.66,19.16,8.49,19.01z"/>
	<path class="st2" d="M11.21,24.24v-6.6h1.37v2.52h2.57v-2.52h1.37v6.6h-1.37V21.3h-2.57v2.95H11.21z"/>
	<path class="st2" d="M22.64,17.64v1.17h-1.97v5.43h-1.39v-5.43h-1.98v-1.17H22.64z"/>
</g>
<g>
	<path class="st1" d="M20.33,15.79c0,0.32-0.9,1.23-1.23,0.99c-1.95-1.43-9.83-9.45-9.83-9.45l1.3-1.34c0,0,4.33,4.5,5.64,5.83
		C17.55,13.15,20.32,15.2,20.33,15.79z"/>
	<polygon class="st1" points="12.43,4.08 7.7,8.95 5.79,6.8 9.12,3.62 	"/>
</g>
<g>
	<path class="st2" d="M20.19,14.83c0,0.32-0.9,1.23-1.23,0.99c-1.95-1.43-9.6-9.21-9.6-9.21l1.3-1.34c0,0,4.09,4.26,5.41,5.58
		C17.41,12.18,20.18,14.23,20.19,14.83z"/>
	<polygon class="st2" points="12.29,3.11 7.56,7.98 5.65,5.83 8.97,2.65 	"/>
</g>
<g>
	<path class="st1" d="M20.44,8.54c0.73-0.73,0.98-1.86,0.77-2.81L19.64,7.3l-0.43,0.03l-1.39-1.39l0.07-0.39l1.55-1.55
		c-0.94-0.19-2.08,0.02-2.81,0.74c-0.67,0.67-0.95,1.63-0.81,2.51h0c0,0-0.01,0.39-0.21,0.79c-0.18,0.37-0.64,0.87-1.29,1.52
		c0,0-4.93,4.36-6.33,6.04c-0.23,0.28-0.49,0.74,0.2,1.44c0.69,0.69,1.17,0.46,1.47,0.23c1.73-1.36,6.08-6.36,6.08-6.36
		c0.65-0.65,1.12-1.11,1.49-1.29c0.4-0.2,0.79-0.22,0.79-0.22l0,0C18.87,9.5,19.78,9.2,20.44,8.54z M8.69,16.54
		c-0.21-0.21-0.21-0.55,0-0.77c0.21-0.21,0.55-0.21,0.77,0c0.21,0.21,0.21,0.55,0,0.77C9.25,16.75,8.9,16.75,8.69,16.54z"/>
	<path class="st1" d="M9.46,15.77c-0.21-0.21-0.55-0.21-0.77,0c-0.21,0.21-0.21,0.55,0,0.77c0.21,0.21,0.55,0.21,0.77,0
		C9.67,16.33,9.67,15.98,9.46,15.77z"/>
</g>
<g>
	<path class="st2" d="M20.81,7.27c0.73-0.73,0.98-1.86,0.77-2.81l-1.79,1.79l-0.2-0.2l-1.39-1.39l0.07-0.39l1.55-1.55
		C18.87,2.52,17.73,2.73,17,3.46c-0.67,0.67-0.95,1.63-0.81,2.51l0,0c0,0-0.01,0.39-0.21,0.79c-0.18,0.37-0.64,0.87-1.29,1.52
		c0,0-4.93,4.36-6.33,6.04c-0.23,0.28-0.49,0.74,0.2,1.44c0.69,0.69,1.17,0.46,1.47,0.23c1.73-1.36,6.08-6.36,6.08-6.36
		c0.65-0.65,1.12-1.11,1.49-1.29c0.4-0.2,0.79-0.22,0.79-0.22l0,0C19.24,8.23,20.15,7.93,20.81,7.27z M9.06,15.27
		c-0.21-0.21-0.21-0.55,0-0.77c0.21-0.21,0.55-0.21,0.77,0c0.21,0.21,0.21,0.55,0,0.77C9.62,15.48,9.28,15.48,9.06,15.27z"/>
	<path class="st1" d="M9.83,14.5c-0.21-0.21-0.55-0.21-0.77,0c-0.21,0.21-0.21,0.55,0,0.77c0.21,0.21,0.55,0.21,0.77,0
		C10.04,15.06,10.04,14.71,9.83,14.5z"/>
</g>
<path class="st3" d="M16.35,6.41c0.28,0.7,0.84,1.25,1.54,1.52"/>
</svg>
